<svg width="100" height="100" viewBox="0 0 100 100" fill="none" xmlns="http://www.w3.org/2000/svg">
<g clip-path="url(#clip0)">
<path d="M56.7515 99.8047H40.706C38.0259 99.8047 35.8458 97.6288 35.8458 94.9539V58.8333H26.4845C23.8044 58.8333 21.6243 56.6567 21.6243 53.9826V38.5048C21.6243 35.8299 23.8044 33.654 26.4845 33.654H35.8458V25.9033C35.8458 18.2182 38.2637 11.6798 42.8373 6.99616C47.4315 2.29111 53.852 -0.195312 61.4046 -0.195312L73.6416 -0.175476C76.3171 -0.170898 78.4935 2.00501 78.4935 4.67529V19.046C78.4935 21.7209 76.3141 23.8968 73.6347 23.8968L65.3957 23.8998C62.883 23.8998 62.2432 24.4026 62.1063 24.5567C61.8808 24.8123 61.6125 25.5348 61.6125 27.5299V33.6533H73.0155C73.874 33.6533 74.7057 33.8646 75.4204 34.2629C76.9623 35.1227 77.9209 36.7485 77.9209 38.5056L77.9148 53.9833C77.9148 56.6567 75.7346 58.8326 73.0545 58.8326H61.6125V94.9539C61.6125 97.6288 59.4316 99.8047 56.7515 99.8047ZM41.7197 93.9423H55.7378V56.2088C55.7378 54.4228 57.1941 52.9701 58.9828 52.9701H72.0409L72.0462 39.5165H58.9821C57.1933 39.5165 55.7378 38.0638 55.7378 36.2778V27.5299C55.7378 25.2396 55.971 22.6349 57.7032 20.6772C59.7962 18.3105 63.0947 18.0374 65.3941 18.0374L72.6196 18.0344V5.68543L61.4 5.66712C49.2623 5.66712 41.7197 13.4216 41.7197 25.9033V36.2778C41.7197 38.0631 40.2642 39.5165 38.4754 39.5165H27.4982V52.9701H38.4754C40.2642 52.9701 41.7197 54.4228 41.7197 56.2088V93.9423ZM73.6301 5.68695H73.6309H73.6301Z" fill="#FF9F1C"/>
</g>
<defs>
<clipPath id="clip0">
<rect width="100" height="100" fill="white"/>
</clipPath>
</defs>
</svg>
