<svg width="100" height="100" viewBox="0 0 100 100" fill="none" xmlns="http://www.w3.org/2000/svg">
<path d="M72.9308 0H27.069C12.1429 0 0 12.1429 0 27.069V72.9315C0 87.8569 12.1429 99.9998 27.069 99.9998H72.9315C87.8569 99.9998 99.9998 87.8569 99.9998 72.9315V27.069C99.9998 12.1429 87.8569 0 72.9308 0V0ZM94.1374 72.9315C94.1374 84.6243 84.6243 94.1374 72.9308 94.1374H27.069C15.3755 94.1374 5.86242 84.6243 5.86242 72.9315V27.069C5.86242 15.3755 15.3755 5.86242 27.069 5.86242H72.9315C84.6243 5.86242 94.1374 15.3755 94.1374 27.069V72.9315Z" fill="#FF9F1C"/>
<path d="M49.9999 22.6562C34.9227 22.6562 22.657 34.922 22.657 49.9992C22.657 65.0764 34.9227 77.3421 49.9999 77.3421C65.0771 77.3421 77.3429 65.0764 77.3429 49.9992C77.3429 34.922 65.0771 22.6562 49.9999 22.6562ZM49.9999 71.4797C38.1561 71.4797 28.5194 61.8438 28.5194 49.9992C28.5194 38.1553 38.1561 28.5187 49.9999 28.5187C61.8445 28.5187 71.4804 38.1553 71.4804 49.9992C71.4804 61.8438 61.8445 71.4797 49.9999 71.4797Z" fill="#FF9F1C"/>
<path d="M77.9967 12.9463C73.5412 12.9463 69.9172 16.571 69.9172 21.0258C69.9172 25.4814 73.5412 29.1061 77.9967 29.1061C82.4523 29.1061 86.077 25.4814 86.077 21.0258C86.077 16.5702 82.4523 12.9463 77.9967 12.9463ZM77.9967 23.2429C76.7745 23.2429 75.7796 22.248 75.7796 21.0258C75.7796 19.8028 76.7745 18.8087 77.9967 18.8087C79.2197 18.8087 80.2146 19.8028 80.2146 21.0258C80.2146 22.248 79.2197 23.2429 77.9967 23.2429Z" fill="#FF9F1C"/>
</svg>
