<svg width="513" height="513" viewBox="0 0 513 513" fill="none" xmlns="http://www.w3.org/2000/svg">
<g clip-path="url(#clip0)">
<path d="M123.577 241.951L360.393 5.79001C368.152 -1.94299 380.714 -1.92999 388.46 5.83001C396.2 13.589 396.18 26.158 388.42 33.897L165.7 256.002L388.428 478.106C396.187 485.846 396.207 498.407 388.468 506.167C384.585 510.057 379.498 512.002 374.411 512.002C369.337 512.002 364.27 510.07 360.394 506.207L123.577 270.052C119.84 266.334 117.743 261.274 117.743 256.002C117.743 250.73 119.846 245.676 123.577 241.951Z" fill="#FDFFFC"/>
</g>
<defs>
<clipPath id="clip0">
<rect width="512.002" height="512.002" fill="white" transform="matrix(-1 0 0 1 512.002 0)"/>
</clipPath>
</defs>
</svg>
