<svg width="100" height="100" viewBox="0 0 100 100" fill="none" xmlns="http://www.w3.org/2000/svg">
<g clip-path="url(#clip0)">
<path d="M38.05 91.0608C21.36 91.0608 8.16875 88.1449 1.85771 83.0622L1.73488 82.963L1.62349 82.8516C0.124316 81.3517 -0.367017 79.3841 0.276904 77.4538L0.33565 77.2936C1.1169 75.3397 3.03111 74.0244 5.10555 74.0122C9.37495 73.9382 13.1103 73.4293 16.5 72.4413C11.0931 69.9267 7.33714 65.5726 5.10249 59.2707C4.351 57.3054 4.9995 55.1264 6.73137 53.8271C7.15861 53.5059 7.64155 53.2633 8.15272 53.1008C5.14827 49.6325 2.92888 45.6858 1.68605 41.5117L1.64714 41.382L1.62044 41.2493C1.19853 39.1382 2.14229 36.9677 3.87187 36.0331C4.59743 35.6165 5.38554 35.4006 6.17671 35.3823C5.32375 33.5451 4.70348 31.6591 4.33574 29.7617C3.31493 24.5035 4.15721 19.2324 6.83818 14.0947L7.45845 12.8542C7.95512 11.8616 8.90422 11.1643 9.99827 10.9865C11.0923 10.8095 12.2138 11.1712 12.9974 11.9547L14.1273 13.0861C23.0537 22.4444 31.0493 26.8847 44.873 29.9227C45.4902 24.6164 47.7844 19.684 51.4854 15.8022C55.8898 11.1834 61.7713 8.59167 68.0465 8.50317H68.0877C72.6661 8.50317 78.3454 11.117 81.7802 12.9603C84.7266 11.9959 88.2766 10.5028 91.9601 8.92431C93.6835 8.11559 95.8083 8.48562 97.1633 9.8406C98.4916 11.1689 98.8601 13.0419 98.1551 14.8623C97.8873 15.6077 97.5837 16.3393 97.2457 17.055C97.75 17.2861 98.2116 17.5997 98.6014 17.9896C99.7802 19.1683 100.272 21.0131 99.8527 22.69L99.8077 22.8495C98.3962 27.3981 95.6847 31.103 92.0989 33.4284C91.5 65.32 67.4842 91.0608 38.05 91.0608ZM7.48134 79.796C13.4284 83.1606 24.7619 85.1961 38.05 85.1961C50.8254 85.1961 62.8814 79.7114 71.9962 69.7519C81.1858 59.7109 86.2464 46.377 86.2464 32.2062V32.0467C86.2464 30.7635 86.9529 29.5923 88.0897 28.9896C90.396 27.7682 92.2637 25.6876 93.4783 23.0272C92.2256 23.2248 90.9522 22.7221 90.1717 21.6738C89.2646 20.4554 89.2547 18.8097 90.1466 17.5806C90.628 16.9169 91.0644 16.2264 91.4535 15.5123C88.2728 16.8482 85.2523 18.046 82.6301 18.8418C81.6772 19.1301 80.6152 19.0172 79.7446 18.5312C75.0762 15.9304 70.7282 14.3755 68.1068 14.3679C58.4335 14.5159 50.5683 22.8007 50.5683 32.8455C50.5683 33.8839 50.1075 34.8574 49.3057 35.5173C48.503 36.1765 47.4593 36.4405 46.4401 36.2391C30.5007 33.0988 21.0555 28.3899 11.2335 18.5198C9.82585 21.8928 9.44133 25.2901 10.0921 28.6448C10.7521 32.0429 12.5076 35.4479 15.1695 38.4913C16.1811 39.6464 16.3154 41.2989 15.5036 42.6027C14.6949 43.902 13.1576 44.5093 11.6798 44.1134C10.5247 43.8036 9.46269 43.397 8.45561 42.8744C10.5072 47.3307 14.0357 51.4521 18.4715 54.4916C19.757 55.3728 20.2941 57.0154 19.7784 58.4864C19.2619 59.9596 17.8192 60.908 16.2597 60.792C14.5606 60.6661 13.0554 60.3434 11.6699 59.7994C14.1571 64.8646 18.1312 67.6516 24.2538 68.7166C25.7118 68.9707 26.847 70.122 27.079 71.5815C27.3117 73.041 26.5891 74.4875 25.2822 75.181C20.0637 77.9474 14.36 79.4321 7.48134 79.796Z" fill="#FF9F1C"/>
</g>
<defs>
<clipPath id="clip0">
<rect width="100" height="100" fill="white"/>
</clipPath>
</defs>
</svg>
