<svg width="100" height="100" viewBox="0 0 100 100" fill="none" xmlns="http://www.w3.org/2000/svg">
<g clip-path="url(#clip0)">
<path d="M65.3921 45.5056L43.2998 33.4176C42.0295 32.7226 40.528 32.7485 39.2829 33.4863C38.037 34.2248 37.2939 35.5294 37.2939 36.9775V60.946C37.2939 62.3872 38.0325 63.6895 39.2699 64.4288C39.9162 64.8149 40.6326 65.0087 41.3505 65.0087C42.0081 65.0087 42.6673 64.8461 43.2738 64.5196L65.3669 52.6399C66.6784 51.9342 67.4971 50.5708 67.5032 49.0808C67.5085 47.5907 66.6998 46.2213 65.3921 45.5056ZM43.1541 57.9309V40.017L59.6655 49.0518L43.1541 57.9309Z" fill="#FF9F1C"/>
<path d="M99.2641 29.9858L99.2596 29.94C99.1749 29.1351 98.3318 21.9757 94.8513 18.3342C90.8283 14.0511 86.2675 13.5307 84.0741 13.2812C83.8925 13.2607 83.7262 13.2416 83.5774 13.2217L83.4027 13.2034C70.1825 12.2421 50.2172 12.1109 50.0173 12.1101L49.9998 12.1094L49.9823 12.1101C49.7824 12.1109 29.8171 12.2421 16.4779 13.2034L16.3017 13.2217C16.1598 13.2408 16.0034 13.2584 15.8332 13.2782C13.665 13.5284 9.15295 14.0495 5.11854 18.4875C1.80358 22.0901 0.845334 29.0962 0.746915 29.8836L0.735471 29.9858C0.705716 30.3207 0 38.2942 0 46.299V53.7819C0 61.7867 0.705716 69.7601 0.735471 70.0958L0.740811 70.1462C0.825497 70.9381 1.66778 77.9663 5.13227 81.6093C8.91491 85.7491 13.6978 86.2968 16.2704 86.5913C16.677 86.6379 17.0272 86.6776 17.266 86.7195L17.4972 86.7516C25.1304 87.4779 49.0629 87.8357 50.0776 87.8502L50.1081 87.851L50.1387 87.8502C50.3385 87.8494 70.3031 87.7182 83.5232 86.7569L83.6979 86.7386C83.865 86.7165 84.0527 86.6966 84.2587 86.6753C86.4148 86.4464 90.9024 85.9711 94.8811 81.5933C98.196 77.99 99.155 70.9839 99.2527 70.1973L99.2641 70.0951C99.2939 69.7594 100 61.7867 100 53.7819V46.299C99.9996 38.2942 99.2939 30.3215 99.2641 29.9858ZM94.1395 53.7819C94.1395 61.1908 93.4925 68.821 93.4315 69.5213C93.1828 71.4508 92.1719 75.8835 90.5567 77.639C88.0665 80.3787 85.5084 80.6503 83.6407 80.8479C83.4149 80.8716 83.2058 80.8945 83.0166 80.9181C70.2298 81.8428 51.0183 81.9847 50.1333 81.9901C49.1407 81.9756 25.5584 81.6147 18.1579 80.9273C17.7787 80.8655 17.369 80.8182 16.9372 80.7693C14.7468 80.5183 11.7485 80.175 9.44286 77.639L9.3887 77.581C7.80179 75.9277 6.81989 71.7827 6.57041 69.5442C6.52387 69.0147 5.86011 61.2946 5.86011 53.7819V46.299C5.86011 38.8985 6.50556 31.2767 6.56812 30.5618C6.8649 28.289 7.89487 24.1249 9.44286 22.4419C12.0094 19.619 14.7155 19.3062 16.5054 19.0994C16.6763 19.0796 16.8357 19.0613 16.983 19.0422C29.9559 18.1129 49.3055 17.9749 49.9998 17.9695C50.6941 17.9741 70.0368 18.1129 82.8946 19.0422C83.0525 19.062 83.2249 19.0819 83.4103 19.1032C85.2513 19.313 88.0337 19.6304 90.5873 22.3541L90.6109 22.3793C92.1978 24.0326 93.1797 28.2501 93.4292 30.5336C93.4734 31.0333 94.1395 38.7703 94.1395 46.299V53.7819Z" fill="#FF9F1C"/>
</g>
<defs>
<clipPath id="clip0">
<rect width="100" height="100" fill="white"/>
</clipPath>
</defs>
</svg>
